# 3ds Max Wavefront OBJ Exporter v0.97b - (c)2007 guruware
# File Created: 05.12.2016 10:59:43

mtllib kitchenTableLegs.mtl

#
# object Box001
#

v  5.0311 10.0000 -5.9556
v  5.0691 10.0000 -5.6136
v  5.1831 10.0000 -5.3476
v  5.3731 10.0000 -5.1576
v  5.6391 10.0000 -5.0436
v  5.9811 10.0000 -5.0056
v  6.0811 10.0000 -5.0056
v  6.4231 10.0000 -5.0436
v  6.6891 10.0000 -5.1576
v  6.8791 10.0000 -5.3476
v  6.9931 10.0000 -5.6136
v  7.0311 10.0000 -5.9556
v  7.0311 10.0000 -6.0556
v  6.9931 10.0000 -6.3976
v  6.8791 10.0000 -6.6636
v  6.6891 10.0000 -6.8536
v  6.4231 10.0000 -6.9676
v  6.0811 10.0000 -7.0056
v  5.9811 10.0000 -7.0056
v  5.6391 10.0000 -6.9676
v  5.3731 10.0000 -6.8536
v  5.1831 10.0000 -6.6636
v  5.0691 10.0000 -6.3976
v  5.0311 10.0000 -6.0556
v  5.9811 -5.1057 -5.0056
v  5.6391 -5.1057 -5.0436
v  5.3731 -5.1057 -5.1576
v  5.1831 -5.1057 -5.3476
v  5.0691 -5.1057 -5.6136
v  5.0311 -5.1057 -5.9556
v  5.0311 -5.1057 -6.0556
v  5.0691 -5.1057 -6.3976
v  5.1831 -5.1057 -6.6636
v  5.3731 -5.1057 -6.8536
v  5.6391 -5.1057 -6.9676
v  5.9811 -5.1057 -7.0056
v  6.0811 -5.1057 -7.0056
v  6.4231 -5.1057 -6.9676
v  6.6891 -5.1057 -6.8536
v  6.8791 -5.1057 -6.6636
v  6.9931 -5.1057 -6.3976
v  7.0311 -5.1057 -6.0556
v  7.0311 -5.1057 -5.9556
v  6.9931 -5.1057 -5.6136
v  6.8791 -5.1057 -5.3476
v  6.6891 -5.1057 -5.1576
v  6.4231 -5.1057 -5.0436
v  6.0811 -5.1057 -5.0056
# 48 vertices

vn 0.0000 1.0000 -0.0000
vn 0.0000 -1.0000 -0.0000
vn -0.0553 0.0000 0.9985
vn 0.0553 0.0000 0.9985
vn 0.9985 0.0000 0.0553
vn 0.9985 0.0000 -0.0553
vn 0.0553 0.0000 -0.9985
vn -0.0553 0.0000 -0.9985
vn -0.9985 0.0000 -0.0553
vn -0.9985 0.0000 0.0553
vn -0.2549 0.0000 0.9670
vn 0.2549 0.0000 0.9670
vn 0.9670 0.0000 -0.2549
vn -0.2549 0.0000 -0.9670
vn -0.5606 0.0000 0.8281
vn -0.8281 0.0000 0.5606
vn -0.9670 0.0000 0.2549
vn 0.5606 0.0000 0.8281
vn 0.8281 0.0000 0.5606
vn 0.9670 0.0000 0.2549
vn 0.8281 0.0000 -0.5606
vn 0.5606 0.0000 -0.8281
vn 0.2549 0.0000 -0.9670
vn -0.5606 0.0000 -0.8281
vn -0.8281 0.0000 -0.5606
vn -0.9670 0.0000 -0.2549
# 26 vertex normals

vt 1.0000 0.4750 0.0000
vt 0.9810 0.3040 0.0000
vt 0.9240 0.1710 0.0000
vt 0.8290 0.0760 0.0000
vt 0.6960 0.0190 0.0000
vt 0.5250 0.0000 0.0000
vt 0.4750 0.0000 0.0000
vt 0.3040 0.0190 0.0000
vt 0.1710 0.0760 0.0000
vt 0.0760 0.1710 0.0000
vt 0.0190 0.3040 0.0000
vt 0.0000 0.4750 0.0000
vt 0.0000 0.5250 0.0000
vt 0.0190 0.6960 0.0000
vt 0.0760 0.8290 0.0000
vt 0.1710 0.9240 0.0000
vt 0.3040 0.9810 0.0000
vt 0.4750 1.0000 0.0000
vt 0.5250 1.0000 0.0000
vt 0.6960 0.9810 0.0000
vt 0.8290 0.9240 0.0000
vt 0.9240 0.8290 0.0000
vt 0.9810 0.6960 0.0000
vt 1.0000 0.5250 0.0000
vt 0.3906 -0.0000 0.0000
vt 0.4175 -0.0000 0.0000
vt 0.4175 1.0000 0.0000
vt 0.3906 1.0000 0.0000
vt 0.6094 1.0000 0.0000
vt 0.5825 1.0000 0.0000
vt 0.5825 0.0000 0.0000
vt 0.6094 0.0000 0.0000
vt 0.4444 -0.0000 0.0000
vt 0.4444 1.0000 0.0000
vt 0.4713 -0.0000 0.0000
vt 0.4713 1.0000 0.0000
vt 0.4981 -0.0000 0.0000
vt 0.4981 1.0000 0.0000
vt 0.5556 1.0000 0.0000
vt 0.5556 0.0000 0.0000
vt 0.5287 1.0000 0.0000
vt 0.5287 0.0000 0.0000
vt 0.5019 1.0000 0.0000
vt 0.5019 0.0000 0.0000
# 44 texture coords

g Box001
usemtl 03___Default
s 1
f 1/1/1 2/2/1 3/3/1 4/4/1 5/5/1 6/6/1 7/7/1 8/8/1 9/9/1 10/10/1 11/11/1 12/12/1 13/13/1 14/14/1 15/15/1 16/16/1 17/17/1 18/18/1 19/19/1 20/20/1 21/21/1 22/22/1 23/23/1 24/24/1 
f 25/7/2 26/8/2 27/9/2 28/10/2 29/11/2 30/12/2 31/13/2 32/14/2 33/15/2 34/16/2 35/17/2 36/18/2 37/19/2 38/20/2 39/21/2 40/22/2 41/23/2 42/24/2 43/1/2 44/2/2 45/3/2 46/4/2 47/5/2 48/6/2 
s 2
f 6/7/3 25/18/3 48/19/4 7/6/4 
f 12/7/5 43/18/5 42/19/6 13/6/6 
f 18/7/7 37/18/7 36/19/8 19/6/8 
f 24/7/9 31/18/9 30/19/10 1/6/10 
f 6/25/3 5/26/11 26/27/11 25/28/3 
f 48/29/4 47/30/12 8/31/12 7/32/4 
f 42/29/6 41/30/13 14/31/13 13/32/6 
f 36/29/8 35/30/14 20/31/14 19/32/8 
f 5/26/11 4/33/15 27/34/15 26/27/11 
f 4/33/15 3/35/16 28/36/16 27/34/15 
f 3/35/16 2/37/17 29/38/17 28/36/16 
f 2/37/17 1/6/10 30/19/10 29/38/17 
f 47/30/12 46/39/18 9/40/18 8/31/12 
f 46/39/18 45/41/19 10/42/19 9/40/18 
f 45/41/19 44/43/20 11/44/20 10/42/19 
f 44/43/20 43/18/5 12/7/5 11/44/20 
f 41/30/13 40/39/21 15/40/21 14/31/13 
f 40/39/21 39/41/22 16/42/22 15/40/21 
f 39/41/22 38/43/23 17/44/23 16/42/22 
f 38/43/23 37/18/7 18/7/7 17/44/23 
f 35/30/14 34/39/24 21/40/24 20/31/14 
f 34/39/24 33/41/25 22/42/25 21/40/24 
f 33/41/25 32/43/26 23/44/26 22/42/25 
f 32/43/26 31/18/9 24/7/9 23/44/26 
# 26 polygons

#
# object Box005
#

v  -7.0120 10.0000 -5.9544
v  -6.9740 10.0000 -5.6124
v  -6.8600 10.0000 -5.3464
v  -6.6700 10.0000 -5.1564
v  -6.4040 10.0000 -5.0424
v  -6.0620 10.0000 -5.0044
v  -5.9620 10.0000 -5.0044
v  -5.6200 10.0000 -5.0424
v  -5.3540 10.0000 -5.1564
v  -5.1640 10.0000 -5.3464
v  -5.0500 10.0000 -5.6124
v  -5.0120 10.0000 -5.9544
v  -5.0120 10.0000 -6.0544
v  -5.0500 10.0000 -6.3964
v  -5.1640 10.0000 -6.6624
v  -5.3540 10.0000 -6.8524
v  -5.6200 10.0000 -6.9664
v  -5.9620 10.0000 -7.0044
v  -6.0620 10.0000 -7.0044
v  -6.4040 10.0000 -6.9664
v  -6.6700 10.0000 -6.8524
v  -6.8600 10.0000 -6.6624
v  -6.9740 10.0000 -6.3964
v  -7.0120 10.0000 -6.0544
v  -6.0620 -5.0966 -5.0044
v  -6.4040 -5.0966 -5.0424
v  -6.6700 -5.0966 -5.1564
v  -6.8600 -5.0966 -5.3464
v  -6.9740 -5.0966 -5.6124
v  -7.0120 -5.0966 -5.9544
v  -7.0120 -5.0966 -6.0544
v  -6.9740 -5.0966 -6.3964
v  -6.8600 -5.0966 -6.6624
v  -6.6700 -5.0966 -6.8524
v  -6.4040 -5.0966 -6.9664
v  -6.0620 -5.0966 -7.0044
v  -5.9620 -5.0966 -7.0044
v  -5.6200 -5.0966 -6.9664
v  -5.3540 -5.0966 -6.8524
v  -5.1640 -5.0966 -6.6624
v  -5.0500 -5.0966 -6.3964
v  -5.0120 -5.0966 -6.0544
v  -5.0120 -5.0966 -5.9544
v  -5.0500 -5.0966 -5.6124
v  -5.1640 -5.0966 -5.3464
v  -5.3540 -5.0966 -5.1564
v  -5.6200 -5.0966 -5.0424
v  -5.9620 -5.0966 -5.0044
# 48 vertices

vn 0.0000 1.0000 -0.0000
vn 0.0000 -1.0000 -0.0000
vn -0.0553 0.0000 0.9985
vn 0.0553 0.0000 0.9985
vn 0.9985 0.0000 0.0553
vn 0.9985 0.0000 -0.0553
vn 0.0553 0.0000 -0.9985
vn -0.0553 0.0000 -0.9985
vn -0.9985 0.0000 -0.0553
vn -0.9985 0.0000 0.0553
vn -0.2549 0.0000 0.9670
vn 0.2549 0.0000 0.9670
vn 0.9670 0.0000 -0.2549
vn -0.2549 0.0000 -0.9670
vn -0.5606 0.0000 0.8281
vn -0.8281 0.0000 0.5606
vn -0.9670 0.0000 0.2549
vn 0.5606 0.0000 0.8281
vn 0.8281 0.0000 0.5606
vn 0.9670 0.0000 0.2549
vn 0.8281 0.0000 -0.5606
vn 0.5606 0.0000 -0.8281
vn 0.2549 0.0000 -0.9670
vn -0.5606 0.0000 -0.8281
vn -0.8281 0.0000 -0.5606
vn -0.9670 0.0000 -0.2549
# 26 vertex normals

vt 1.0000 0.4750 0.0000
vt 0.9810 0.3040 0.0000
vt 0.9240 0.1710 0.0000
vt 0.8290 0.0760 0.0000
vt 0.6960 0.0190 0.0000
vt 0.5250 0.0000 0.0000
vt 0.4750 0.0000 0.0000
vt 0.3040 0.0190 0.0000
vt 0.1710 0.0760 0.0000
vt 0.0760 0.1710 0.0000
vt 0.0190 0.3040 0.0000
vt 0.0000 0.4750 0.0000
vt 0.0000 0.5250 0.0000
vt 0.0190 0.6960 0.0000
vt 0.0760 0.8290 0.0000
vt 0.1710 0.9240 0.0000
vt 0.3040 0.9810 0.0000
vt 0.4750 1.0000 0.0000
vt 0.5250 1.0000 0.0000
vt 0.6960 0.9810 0.0000
vt 0.8290 0.9240 0.0000
vt 0.9240 0.8290 0.0000
vt 0.9810 0.6960 0.0000
vt 1.0000 0.5250 0.0000
vt 0.3906 -0.0000 0.0000
vt 0.4175 -0.0000 0.0000
vt 0.4175 1.0000 0.0000
vt 0.3906 1.0000 0.0000
vt 0.6094 1.0000 0.0000
vt 0.5825 1.0000 0.0000
vt 0.5825 0.0000 0.0000
vt 0.6094 0.0000 0.0000
vt 0.4444 -0.0000 0.0000
vt 0.4444 1.0000 0.0000
vt 0.4713 -0.0000 0.0000
vt 0.4713 1.0000 0.0000
vt 0.4981 -0.0000 0.0000
vt 0.4981 1.0000 0.0000
vt 0.5556 1.0000 0.0000
vt 0.5556 0.0000 0.0000
vt 0.5287 1.0000 0.0000
vt 0.5287 0.0000 0.0000
vt 0.5019 1.0000 0.0000
vt 0.5019 0.0000 0.0000
# 44 texture coords

g Box005
usemtl 03___Default
s 1
f 49/45/27 50/46/27 51/47/27 52/48/27 53/49/27 54/50/27 55/51/27 56/52/27 57/53/27 58/54/27 59/55/27 60/56/27 61/57/27 62/58/27 63/59/27 64/60/27 65/61/27 66/62/27 67/63/27 68/64/27 69/65/27 70/66/27 71/67/27 72/68/27 
f 73/51/28 74/52/28 75/53/28 76/54/28 77/55/28 78/56/28 79/57/28 80/58/28 81/59/28 82/60/28 83/61/28 84/62/28 85/63/28 86/64/28 87/65/28 88/66/28 89/67/28 90/68/28 91/45/28 92/46/28 93/47/28 94/48/28 95/49/28 96/50/28 
s 2
f 54/51/29 73/62/29 96/63/30 55/50/30 
f 60/51/31 91/62/31 90/63/32 61/50/32 
f 66/51/33 85/62/33 84/63/34 67/50/34 
f 72/51/35 79/62/35 78/63/36 49/50/36 
f 54/69/29 53/70/37 74/71/37 73/72/29 
f 96/73/30 95/74/38 56/75/38 55/76/30 
f 90/73/32 89/74/39 62/75/39 61/76/32 
f 84/73/34 83/74/40 68/75/40 67/76/34 
f 53/70/37 52/77/41 75/78/41 74/71/37 
f 52/77/41 51/79/42 76/80/42 75/78/41 
f 51/79/42 50/81/43 77/82/43 76/80/42 
f 50/81/43 49/50/36 78/63/36 77/82/43 
f 95/74/38 94/83/44 57/84/44 56/75/38 
f 94/83/44 93/85/45 58/86/45 57/84/44 
f 93/85/45 92/87/46 59/88/46 58/86/45 
f 92/87/46 91/62/31 60/51/31 59/88/46 
f 89/74/39 88/83/47 63/84/47 62/75/39 
f 88/83/47 87/85/48 64/86/48 63/84/47 
f 87/85/48 86/87/49 65/88/49 64/86/48 
f 86/87/49 85/62/33 66/51/33 65/88/49 
f 83/74/40 82/83/50 69/84/50 68/75/40 
f 82/83/50 81/85/51 70/86/51 69/84/50 
f 81/85/51 80/87/52 71/88/52 70/86/51 
f 80/87/52 79/62/35 72/51/35 71/88/52 
# 26 polygons

#
# object Box006
#

v  5.0311 10.0000 6.0600
v  5.0691 10.0000 6.4020
v  5.1831 10.0000 6.6680
v  5.3731 10.0000 6.8580
v  5.6391 10.0000 6.9720
v  5.9811 10.0000 7.0100
v  6.0811 10.0000 7.0100
v  6.4231 10.0000 6.9720
v  6.6891 10.0000 6.8580
v  6.8791 10.0000 6.6680
v  6.9931 10.0000 6.4020
v  7.0311 10.0000 6.0600
v  7.0311 10.0000 5.9600
v  6.9931 10.0000 5.6180
v  6.8791 10.0000 5.3520
v  6.6891 10.0000 5.1620
v  6.4231 10.0000 5.0480
v  6.0811 10.0000 5.0100
v  5.9811 10.0000 5.0100
v  5.6391 10.0000 5.0480
v  5.3731 10.0000 5.1620
v  5.1831 10.0000 5.3520
v  5.0691 10.0000 5.6180
v  5.0311 10.0000 5.9600
v  5.9811 -5.0339 7.0100
v  5.6391 -5.0339 6.9720
v  5.3731 -5.0339 6.8580
v  5.1831 -5.0339 6.6680
v  5.0691 -5.0339 6.4020
v  5.0311 -5.0339 6.0600
v  5.0311 -5.0339 5.9600
v  5.0691 -5.0339 5.6180
v  5.1831 -5.0339 5.3520
v  5.3731 -5.0339 5.1620
v  5.6391 -5.0339 5.0480
v  5.9811 -5.0339 5.0100
v  6.0811 -5.0339 5.0100
v  6.4231 -5.0339 5.0480
v  6.6891 -5.0339 5.1620
v  6.8791 -5.0339 5.3520
v  6.9931 -5.0339 5.6180
v  7.0311 -5.0339 5.9600
v  7.0311 -5.0339 6.0600
v  6.9931 -5.0339 6.4020
v  6.8791 -5.0339 6.6680
v  6.6891 -5.0339 6.8580
v  6.4231 -5.0339 6.9720
v  6.0811 -5.0339 7.0100
# 48 vertices

vn 0.0000 1.0000 -0.0000
vn 0.0000 -1.0000 -0.0000
vn -0.0553 0.0000 0.9985
vn 0.0553 0.0000 0.9985
vn 0.9985 0.0000 0.0553
vn 0.9985 0.0000 -0.0553
vn 0.0553 0.0000 -0.9985
vn -0.0553 0.0000 -0.9985
vn -0.9985 0.0000 -0.0553
vn -0.9985 0.0000 0.0553
vn -0.2549 0.0000 0.9670
vn 0.2549 0.0000 0.9670
vn 0.9670 0.0000 -0.2549
vn -0.2549 0.0000 -0.9670
vn -0.5606 0.0000 0.8281
vn -0.8281 0.0000 0.5606
vn -0.9670 0.0000 0.2549
vn 0.5606 0.0000 0.8281
vn 0.8281 0.0000 0.5606
vn 0.9670 0.0000 0.2549
vn 0.8281 0.0000 -0.5606
vn 0.5606 0.0000 -0.8281
vn 0.2549 0.0000 -0.9670
vn -0.5606 0.0000 -0.8281
vn -0.8281 0.0000 -0.5606
vn -0.9670 0.0000 -0.2549
# 26 vertex normals

vt 1.0000 0.4750 0.0000
vt 0.9810 0.3040 0.0000
vt 0.9240 0.1710 0.0000
vt 0.8290 0.0760 0.0000
vt 0.6960 0.0190 0.0000
vt 0.5250 0.0000 0.0000
vt 0.4750 0.0000 0.0000
vt 0.3040 0.0190 0.0000
vt 0.1710 0.0760 0.0000
vt 0.0760 0.1710 0.0000
vt 0.0190 0.3040 0.0000
vt 0.0000 0.4750 0.0000
vt 0.0000 0.5250 0.0000
vt 0.0190 0.6960 0.0000
vt 0.0760 0.8290 0.0000
vt 0.1710 0.9240 0.0000
vt 0.3040 0.9810 0.0000
vt 0.4750 1.0000 0.0000
vt 0.5250 1.0000 0.0000
vt 0.6960 0.9810 0.0000
vt 0.8290 0.9240 0.0000
vt 0.9240 0.8290 0.0000
vt 0.9810 0.6960 0.0000
vt 1.0000 0.5250 0.0000
vt 0.3906 -0.0000 0.0000
vt 0.4175 -0.0000 0.0000
vt 0.4175 1.0000 0.0000
vt 0.3906 1.0000 0.0000
vt 0.6094 1.0000 0.0000
vt 0.5825 1.0000 0.0000
vt 0.5825 0.0000 0.0000
vt 0.6094 0.0000 0.0000
vt 0.4444 -0.0000 0.0000
vt 0.4444 1.0000 0.0000
vt 0.4713 -0.0000 0.0000
vt 0.4713 1.0000 0.0000
vt 0.4981 -0.0000 0.0000
vt 0.4981 1.0000 0.0000
vt 0.5556 1.0000 0.0000
vt 0.5556 0.0000 0.0000
vt 0.5287 1.0000 0.0000
vt 0.5287 0.0000 0.0000
vt 0.5019 1.0000 0.0000
vt 0.5019 0.0000 0.0000
# 44 texture coords

g Box006
usemtl 03___Default
s 1
f 97/89/53 98/90/53 99/91/53 100/92/53 101/93/53 102/94/53 103/95/53 104/96/53 105/97/53 106/98/53 107/99/53 108/100/53 109/101/53 110/102/53 111/103/53 112/104/53 113/105/53 114/106/53 115/107/53 116/108/53 117/109/53 118/110/53 119/111/53 120/112/53 
f 121/95/54 122/96/54 123/97/54 124/98/54 125/99/54 126/100/54 127/101/54 128/102/54 129/103/54 130/104/54 131/105/54 132/106/54 133/107/54 134/108/54 135/109/54 136/110/54 137/111/54 138/112/54 139/89/54 140/90/54 141/91/54 142/92/54 143/93/54 144/94/54 
s 2
f 102/95/55 121/106/55 144/107/56 103/94/56 
f 108/95/57 139/106/57 138/107/58 109/94/58 
f 114/95/59 133/106/59 132/107/60 115/94/60 
f 120/95/61 127/106/61 126/107/62 97/94/62 
f 102/113/55 101/114/63 122/115/63 121/116/55 
f 144/117/56 143/118/64 104/119/64 103/120/56 
f 138/117/58 137/118/65 110/119/65 109/120/58 
f 132/117/60 131/118/66 116/119/66 115/120/60 
f 101/114/63 100/121/67 123/122/67 122/115/63 
f 100/121/67 99/123/68 124/124/68 123/122/67 
f 99/123/68 98/125/69 125/126/69 124/124/68 
f 98/125/69 97/94/62 126/107/62 125/126/69 
f 143/118/64 142/127/70 105/128/70 104/119/64 
f 142/127/70 141/129/71 106/130/71 105/128/70 
f 141/129/71 140/131/72 107/132/72 106/130/71 
f 140/131/72 139/106/57 108/95/57 107/132/72 
f 137/118/65 136/127/73 111/128/73 110/119/65 
f 136/127/73 135/129/74 112/130/74 111/128/73 
f 135/129/74 134/131/75 113/132/75 112/130/74 
f 134/131/75 133/106/59 114/95/59 113/132/75 
f 131/118/66 130/127/76 117/128/76 116/119/66 
f 130/127/76 129/129/77 118/130/77 117/128/76 
f 129/129/77 128/131/78 119/132/78 118/130/77 
f 128/131/78 127/106/61 120/95/61 119/132/78 
# 26 polygons

#
# object Box007
#

v  -6.9000 10.0000 6.0600
v  -6.8620 10.0000 6.4020
v  -6.7480 10.0000 6.6680
v  -6.5580 10.0000 6.8580
v  -6.2920 10.0000 6.9720
v  -5.9500 10.0000 7.0100
v  -5.8500 10.0000 7.0100
v  -5.5080 10.0000 6.9720
v  -5.2420 10.0000 6.8580
v  -5.0520 10.0000 6.6680
v  -4.9380 10.0000 6.4020
v  -4.9000 10.0000 6.0600
v  -4.9000 10.0000 5.9600
v  -4.9380 10.0000 5.6180
v  -5.0520 10.0000 5.3520
v  -5.2420 10.0000 5.1620
v  -5.5080 10.0000 5.0480
v  -5.8500 10.0000 5.0100
v  -5.9500 10.0000 5.0100
v  -6.2920 10.0000 5.0480
v  -6.5580 10.0000 5.1620
v  -6.7480 10.0000 5.3520
v  -6.8620 10.0000 5.6180
v  -6.9000 10.0000 5.9600
v  -5.9500 -5.0306 7.0100
v  -6.2920 -5.0306 6.9720
v  -6.5580 -5.0306 6.8580
v  -6.7480 -5.0306 6.6680
v  -6.8620 -5.0306 6.4020
v  -6.9000 -5.0306 6.0600
v  -6.9000 -5.0306 5.9600
v  -6.8620 -5.0306 5.6180
v  -6.7480 -5.0306 5.3520
v  -6.5580 -5.0306 5.1620
v  -6.2920 -5.0306 5.0480
v  -5.9500 -5.0306 5.0100
v  -5.8500 -5.0306 5.0100
v  -5.5080 -5.0306 5.0480
v  -5.2420 -5.0306 5.1620
v  -5.0520 -5.0306 5.3520
v  -4.9380 -5.0306 5.6180
v  -4.9000 -5.0306 5.9600
v  -4.9000 -5.0306 6.0600
v  -4.9380 -5.0306 6.4020
v  -5.0520 -5.0306 6.6680
v  -5.2420 -5.0306 6.8580
v  -5.5080 -5.0306 6.9720
v  -5.8500 -5.0306 7.0100
# 48 vertices

vn 0.0000 1.0000 -0.0000
vn 0.0000 -1.0000 -0.0000
vn -0.0553 0.0000 0.9985
vn 0.0553 0.0000 0.9985
vn 0.9985 0.0000 0.0553
vn 0.9985 0.0000 -0.0553
vn 0.0553 0.0000 -0.9985
vn -0.0553 0.0000 -0.9985
vn -0.9985 0.0000 -0.0553
vn -0.9985 0.0000 0.0553
vn -0.2549 0.0000 0.9670
vn 0.2549 0.0000 0.9670
vn 0.9670 0.0000 -0.2549
vn -0.2549 0.0000 -0.9670
vn -0.5606 0.0000 0.8281
vn -0.8281 0.0000 0.5606
vn -0.9670 0.0000 0.2549
vn 0.5606 0.0000 0.8281
vn 0.8281 0.0000 0.5606
vn 0.9670 0.0000 0.2549
vn 0.8281 0.0000 -0.5606
vn 0.5606 0.0000 -0.8281
vn 0.2549 0.0000 -0.9670
vn -0.5606 0.0000 -0.8281
vn -0.8281 0.0000 -0.5606
vn -0.9670 0.0000 -0.2549
# 26 vertex normals

vt 1.0000 0.4750 0.0000
vt 0.9810 0.3040 0.0000
vt 0.9240 0.1710 0.0000
vt 0.8290 0.0760 0.0000
vt 0.6960 0.0190 0.0000
vt 0.5250 0.0000 0.0000
vt 0.4750 0.0000 0.0000
vt 0.3040 0.0190 0.0000
vt 0.1710 0.0760 0.0000
vt 0.0760 0.1710 0.0000
vt 0.0190 0.3040 0.0000
vt 0.0000 0.4750 0.0000
vt 0.0000 0.5250 0.0000
vt 0.0190 0.6960 0.0000
vt 0.0760 0.8290 0.0000
vt 0.1710 0.9240 0.0000
vt 0.3040 0.9810 0.0000
vt 0.4750 1.0000 0.0000
vt 0.5250 1.0000 0.0000
vt 0.6960 0.9810 0.0000
vt 0.8290 0.9240 0.0000
vt 0.9240 0.8290 0.0000
vt 0.9810 0.6960 0.0000
vt 1.0000 0.5250 0.0000
vt 0.3906 -0.0000 0.0000
vt 0.4175 -0.0000 0.0000
vt 0.4175 1.0000 0.0000
vt 0.3906 1.0000 0.0000
vt 0.6094 1.0000 0.0000
vt 0.5825 1.0000 0.0000
vt 0.5825 0.0000 0.0000
vt 0.6094 0.0000 0.0000
vt 0.4444 -0.0000 0.0000
vt 0.4444 1.0000 0.0000
vt 0.4713 -0.0000 0.0000
vt 0.4713 1.0000 0.0000
vt 0.4981 -0.0000 0.0000
vt 0.4981 1.0000 0.0000
vt 0.5556 1.0000 0.0000
vt 0.5556 0.0000 0.0000
vt 0.5287 1.0000 0.0000
vt 0.5287 0.0000 0.0000
vt 0.5019 1.0000 0.0000
vt 0.5019 0.0000 0.0000
# 44 texture coords

g Box007
usemtl 03___Default
s 1
f 145/133/79 146/134/79 147/135/79 148/136/79 149/137/79 150/138/79 151/139/79 152/140/79 153/141/79 154/142/79 155/143/79 156/144/79 157/145/79 158/146/79 159/147/79 160/148/79 161/149/79 162/150/79 163/151/79 164/152/79 165/153/79 166/154/79 167/155/79 168/156/79 
f 169/139/80 170/140/80 171/141/80 172/142/80 173/143/80 174/144/80 175/145/80 176/146/80 177/147/80 178/148/80 179/149/80 180/150/80 181/151/80 182/152/80 183/153/80 184/154/80 185/155/80 186/156/80 187/133/80 188/134/80 189/135/80 190/136/80 191/137/80 192/138/80 
s 2
f 150/139/81 169/150/81 192/151/82 151/138/82 
f 156/139/83 187/150/83 186/151/84 157/138/84 
f 162/139/85 181/150/85 180/151/86 163/138/86 
f 168/139/87 175/150/87 174/151/88 145/138/88 
f 150/157/81 149/158/89 170/159/89 169/160/81 
f 192/161/82 191/162/90 152/163/90 151/164/82 
f 186/161/84 185/162/91 158/163/91 157/164/84 
f 180/161/86 179/162/92 164/163/92 163/164/86 
f 149/158/89 148/165/93 171/166/93 170/159/89 
f 148/165/93 147/167/94 172/168/94 171/166/93 
f 147/167/94 146/169/95 173/170/95 172/168/94 
f 146/169/95 145/138/88 174/151/88 173/170/95 
f 191/162/90 190/171/96 153/172/96 152/163/90 
f 190/171/96 189/173/97 154/174/97 153/172/96 
f 189/173/97 188/175/98 155/176/98 154/174/97 
f 188/175/98 187/150/83 156/139/83 155/176/98 
f 185/162/91 184/171/99 159/172/99 158/163/91 
f 184/171/99 183/173/100 160/174/100 159/172/99 
f 183/173/100 182/175/101 161/176/101 160/174/100 
f 182/175/101 181/150/85 162/139/85 161/176/101 
f 179/162/92 178/171/102 165/172/102 164/163/92 
f 178/171/102 177/173/103 166/174/103 165/172/102 
f 177/173/103 176/175/104 167/176/104 166/174/103 
f 176/175/104 175/150/87 168/139/87 167/176/104 
# 26 polygons

